<mxfile host="app.diagrams.net" modified="2022-04-28T06:12:15.818Z" agent="5.0 (Windows NT 6.1; Win64; x64) AppleWebKit/537.36 (KHTML, like Gecko) Chrome/100.0.4896.127 Safari/537.36" etag="x_F-nckGVp1Emxae1nI_" version="17.4.6" type="github" pages="2">
  <diagram id="kgpKYQtTHZ0yAKxKKP6v" name="Page-1">
    <mxGraphModel dx="1296" dy="722" grid="1" gridSize="10" guides="1" tooltips="1" connect="1" arrows="1" fold="1" page="1" pageScale="1" pageWidth="850" pageHeight="1100" math="0" shadow="0">
      <root>
        <mxCell id="0" />
        <mxCell id="1" parent="0" />
        <mxCell id="3nuBFxr9cyL0pnOWT2aG-5" value="Интерфейс" style="shape=umlLifeline;perimeter=lifelinePerimeter;container=1;collapsible=0;recursiveResize=0;rounded=0;shadow=0;strokeWidth=1;fontFamily=Verdana;" parent="1" vertex="1">
          <mxGeometry x="300" y="80" width="100" height="300" as="geometry" />
        </mxCell>
        <mxCell id="3nuBFxr9cyL0pnOWT2aG-6" value="" style="points=[];perimeter=orthogonalPerimeter;rounded=0;shadow=0;strokeWidth=1;fontFamily=Verdana;" parent="3nuBFxr9cyL0pnOWT2aG-5" vertex="1">
          <mxGeometry x="45" y="80" width="10" height="160" as="geometry" />
        </mxCell>
        <mxCell id="3nuBFxr9cyL0pnOWT2aG-7" value="Вывод результата транзакции" style="verticalAlign=bottom;endArrow=open;dashed=1;endSize=8;exitX=0;exitY=0.95;shadow=0;strokeWidth=1;fontFamily=Verdana;" parent="1" source="3nuBFxr9cyL0pnOWT2aG-6" target="3nuBFxr9cyL0pnOWT2aG-2" edge="1">
          <mxGeometry relative="1" as="geometry">
            <mxPoint x="275" y="236" as="targetPoint" />
          </mxGeometry>
        </mxCell>
        <mxCell id="3nuBFxr9cyL0pnOWT2aG-8" value="Добавление, Изменение" style="verticalAlign=bottom;endArrow=block;entryX=0;entryY=0;shadow=0;strokeWidth=1;fontFamily=Verdana;" parent="1" source="3nuBFxr9cyL0pnOWT2aG-2" target="3nuBFxr9cyL0pnOWT2aG-6" edge="1">
          <mxGeometry relative="1" as="geometry">
            <mxPoint x="275" y="160" as="sourcePoint" />
          </mxGeometry>
        </mxCell>
        <mxCell id="3nuBFxr9cyL0pnOWT2aG-9" value="Запрос подтверждения действия" style="verticalAlign=bottom;endArrow=block;entryX=1;entryY=0;shadow=0;strokeWidth=1;fontFamily=Verdana;" parent="1" source="3nuBFxr9cyL0pnOWT2aG-6" target="3nuBFxr9cyL0pnOWT2aG-4" edge="1">
          <mxGeometry relative="1" as="geometry">
            <mxPoint x="240" y="200" as="sourcePoint" />
          </mxGeometry>
        </mxCell>
        <mxCell id="3nuBFxr9cyL0pnOWT2aG-10" value="Результат" style="verticalAlign=bottom;endArrow=open;dashed=1;endSize=8;exitX=1;exitY=0.95;shadow=0;strokeWidth=1;fontFamily=Verdana;" parent="1" source="3nuBFxr9cyL0pnOWT2aG-4" target="3nuBFxr9cyL0pnOWT2aG-6" edge="1">
          <mxGeometry relative="1" as="geometry">
            <mxPoint x="240" y="257" as="targetPoint" />
          </mxGeometry>
        </mxCell>
        <mxCell id="sBuHouOGFYdpr-9hvxeR-1" value="Пользователь" style="shape=umlLifeline;participant=umlActor;perimeter=lifelinePerimeter;whiteSpace=wrap;html=1;container=1;collapsible=0;recursiveResize=0;verticalAlign=top;spacingTop=36;outlineConnect=0;fontFamily=Verdana;" vertex="1" parent="1">
          <mxGeometry x="70" y="80" width="20" height="300" as="geometry" />
        </mxCell>
        <mxCell id="3nuBFxr9cyL0pnOWT2aG-2" value="" style="points=[];perimeter=orthogonalPerimeter;rounded=0;shadow=0;strokeWidth=1;fontFamily=Verdana;" parent="sBuHouOGFYdpr-9hvxeR-1" vertex="1">
          <mxGeometry x="5" y="70" width="10" height="160" as="geometry" />
        </mxCell>
        <mxCell id="3nuBFxr9cyL0pnOWT2aG-4" value="" style="points=[];perimeter=orthogonalPerimeter;rounded=0;shadow=0;strokeWidth=1;fontFamily=Verdana;" parent="sBuHouOGFYdpr-9hvxeR-1" vertex="1">
          <mxGeometry x="10" y="120" width="10" height="80" as="geometry" />
        </mxCell>
        <mxCell id="sBuHouOGFYdpr-9hvxeR-2" value="База данных" style="shape=umlLifeline;perimeter=lifelinePerimeter;container=1;collapsible=0;recursiveResize=0;rounded=0;shadow=0;strokeWidth=1;fontFamily=Verdana;" vertex="1" parent="1">
          <mxGeometry x="510" y="80" width="100" height="300" as="geometry" />
        </mxCell>
        <mxCell id="sBuHouOGFYdpr-9hvxeR-3" value="" style="points=[];perimeter=orthogonalPerimeter;rounded=0;shadow=0;strokeWidth=1;fontFamily=Verdana;" vertex="1" parent="sBuHouOGFYdpr-9hvxeR-2">
          <mxGeometry x="45" y="190" width="10" height="60" as="geometry" />
        </mxCell>
        <mxCell id="sBuHouOGFYdpr-9hvxeR-6" value="" style="html=1;points=[];perimeter=orthogonalPerimeter;fontFamily=Verdana;" vertex="1" parent="sBuHouOGFYdpr-9hvxeR-2">
          <mxGeometry x="51" y="208" width="10" height="24" as="geometry" />
        </mxCell>
        <mxCell id="sBuHouOGFYdpr-9hvxeR-7" value="" style="edgeStyle=orthogonalEdgeStyle;html=1;align=left;spacingLeft=2;endArrow=block;rounded=0;fontFamily=Verdana;" edge="1" target="sBuHouOGFYdpr-9hvxeR-6" parent="sBuHouOGFYdpr-9hvxeR-2" source="sBuHouOGFYdpr-9hvxeR-3">
          <mxGeometry relative="1" as="geometry">
            <mxPoint x="60" y="200" as="sourcePoint" />
            <Array as="points">
              <mxPoint x="90" y="200" />
              <mxPoint x="90" y="220" />
            </Array>
          </mxGeometry>
        </mxCell>
        <mxCell id="sBuHouOGFYdpr-9hvxeR-5" value="SQL" style="html=1;verticalAlign=bottom;endArrow=block;rounded=0;fontFamily=Verdana;" edge="1" parent="1">
          <mxGeometry width="80" relative="1" as="geometry">
            <mxPoint x="355" y="280" as="sourcePoint" />
            <mxPoint x="555" y="280" as="targetPoint" />
          </mxGeometry>
        </mxCell>
        <mxCell id="sBuHouOGFYdpr-9hvxeR-9" value="Результат транзакции" style="html=1;verticalAlign=bottom;endArrow=open;dashed=1;endSize=8;rounded=0;fontFamily=Verdana;" edge="1" parent="1">
          <mxGeometry relative="1" as="geometry">
            <mxPoint x="555" y="310" as="sourcePoint" />
            <mxPoint x="355" y="310" as="targetPoint" />
          </mxGeometry>
        </mxCell>
      </root>
    </mxGraphModel>
  </diagram>
  <diagram id="ynxFTevr0QNDGqFKkNvG" name="Страница 2">
    <mxGraphModel dx="760" dy="423" grid="1" gridSize="10" guides="1" tooltips="1" connect="1" arrows="1" fold="1" page="1" pageScale="1" pageWidth="827" pageHeight="1169" math="0" shadow="0">
      <root>
        <mxCell id="0" />
        <mxCell id="1" parent="0" />
        <mxCell id="OK56HSLlgg3BRRif6dRQ-1" value="Интерфейс" style="shape=umlLifeline;perimeter=lifelinePerimeter;container=1;collapsible=0;recursiveResize=0;rounded=0;shadow=0;strokeWidth=1;fontFamily=Verdana;" vertex="1" parent="1">
          <mxGeometry x="300" y="80" width="100" height="300" as="geometry" />
        </mxCell>
        <mxCell id="OK56HSLlgg3BRRif6dRQ-2" value="" style="points=[];perimeter=orthogonalPerimeter;rounded=0;shadow=0;strokeWidth=1;fontFamily=Verdana;" vertex="1" parent="OK56HSLlgg3BRRif6dRQ-1">
          <mxGeometry x="45" y="80" width="10" height="160" as="geometry" />
        </mxCell>
        <mxCell id="OK56HSLlgg3BRRif6dRQ-3" value="Вывод результата транзакции" style="verticalAlign=bottom;endArrow=open;dashed=1;endSize=8;exitX=0;exitY=0.95;shadow=0;strokeWidth=1;fontFamily=Verdana;" edge="1" parent="1" source="OK56HSLlgg3BRRif6dRQ-2" target="OK56HSLlgg3BRRif6dRQ-8">
          <mxGeometry relative="1" as="geometry">
            <mxPoint x="275" y="236" as="targetPoint" />
          </mxGeometry>
        </mxCell>
        <mxCell id="OK56HSLlgg3BRRif6dRQ-4" value="Удаление" style="verticalAlign=bottom;endArrow=block;entryX=0;entryY=0;shadow=0;strokeWidth=1;fontFamily=Verdana;" edge="1" parent="1" source="OK56HSLlgg3BRRif6dRQ-8" target="OK56HSLlgg3BRRif6dRQ-2">
          <mxGeometry relative="1" as="geometry">
            <mxPoint x="275" y="160" as="sourcePoint" />
          </mxGeometry>
        </mxCell>
        <mxCell id="OK56HSLlgg3BRRif6dRQ-5" value="Запрос пароля" style="verticalAlign=bottom;endArrow=block;entryX=1;entryY=0;shadow=0;strokeWidth=1;fontFamily=Verdana;" edge="1" parent="1" source="OK56HSLlgg3BRRif6dRQ-2" target="OK56HSLlgg3BRRif6dRQ-9">
          <mxGeometry relative="1" as="geometry">
            <mxPoint x="240" y="200" as="sourcePoint" />
          </mxGeometry>
        </mxCell>
        <mxCell id="OK56HSLlgg3BRRif6dRQ-6" value="Пароль" style="verticalAlign=bottom;endArrow=open;dashed=1;endSize=8;exitX=1;exitY=0.95;shadow=0;strokeWidth=1;fontFamily=Verdana;" edge="1" parent="1">
          <mxGeometry relative="1" as="geometry">
            <mxPoint x="345" y="246" as="targetPoint" />
            <mxPoint x="90" y="246" as="sourcePoint" />
          </mxGeometry>
        </mxCell>
        <mxCell id="OK56HSLlgg3BRRif6dRQ-7" value="Пользователь" style="shape=umlLifeline;participant=umlActor;perimeter=lifelinePerimeter;whiteSpace=wrap;html=1;container=1;collapsible=0;recursiveResize=0;verticalAlign=top;spacingTop=36;outlineConnect=0;fontFamily=Verdana;" vertex="1" parent="1">
          <mxGeometry x="70" y="80" width="20" height="300" as="geometry" />
        </mxCell>
        <mxCell id="OK56HSLlgg3BRRif6dRQ-8" value="" style="points=[];perimeter=orthogonalPerimeter;rounded=0;shadow=0;strokeWidth=1;fontFamily=Verdana;" vertex="1" parent="OK56HSLlgg3BRRif6dRQ-7">
          <mxGeometry x="5" y="70" width="10" height="160" as="geometry" />
        </mxCell>
        <mxCell id="OK56HSLlgg3BRRif6dRQ-9" value="" style="points=[];perimeter=orthogonalPerimeter;rounded=0;shadow=0;strokeWidth=1;fontFamily=Verdana;" vertex="1" parent="OK56HSLlgg3BRRif6dRQ-7">
          <mxGeometry x="10" y="120" width="10" height="80" as="geometry" />
        </mxCell>
        <mxCell id="OK56HSLlgg3BRRif6dRQ-10" value="База данных" style="shape=umlLifeline;perimeter=lifelinePerimeter;container=1;collapsible=0;recursiveResize=0;rounded=0;shadow=0;strokeWidth=1;fontFamily=Verdana;" vertex="1" parent="1">
          <mxGeometry x="510" y="80" width="100" height="300" as="geometry" />
        </mxCell>
        <mxCell id="OK56HSLlgg3BRRif6dRQ-11" value="" style="points=[];perimeter=orthogonalPerimeter;rounded=0;shadow=0;strokeWidth=1;fontFamily=Verdana;" vertex="1" parent="OK56HSLlgg3BRRif6dRQ-10">
          <mxGeometry x="45" y="190" width="10" height="60" as="geometry" />
        </mxCell>
        <mxCell id="OK56HSLlgg3BRRif6dRQ-12" value="" style="html=1;points=[];perimeter=orthogonalPerimeter;fontFamily=Verdana;" vertex="1" parent="OK56HSLlgg3BRRif6dRQ-10">
          <mxGeometry x="51" y="208" width="10" height="24" as="geometry" />
        </mxCell>
        <mxCell id="OK56HSLlgg3BRRif6dRQ-13" value="" style="edgeStyle=orthogonalEdgeStyle;html=1;align=left;spacingLeft=2;endArrow=block;rounded=0;fontFamily=Verdana;" edge="1" parent="OK56HSLlgg3BRRif6dRQ-10" source="OK56HSLlgg3BRRif6dRQ-11" target="OK56HSLlgg3BRRif6dRQ-12">
          <mxGeometry relative="1" as="geometry">
            <mxPoint x="60" y="200" as="sourcePoint" />
            <Array as="points">
              <mxPoint x="90" y="200" />
              <mxPoint x="90" y="220" />
            </Array>
          </mxGeometry>
        </mxCell>
        <mxCell id="OK56HSLlgg3BRRif6dRQ-14" value="SQL" style="html=1;verticalAlign=bottom;endArrow=block;rounded=0;fontFamily=Verdana;" edge="1" parent="1">
          <mxGeometry width="80" relative="1" as="geometry">
            <mxPoint x="355" y="280" as="sourcePoint" />
            <mxPoint x="555" y="280" as="targetPoint" />
          </mxGeometry>
        </mxCell>
        <mxCell id="OK56HSLlgg3BRRif6dRQ-15" value="Результат транзакции" style="html=1;verticalAlign=bottom;endArrow=open;dashed=1;endSize=8;rounded=0;fontFamily=Verdana;" edge="1" parent="1">
          <mxGeometry relative="1" as="geometry">
            <mxPoint x="555" y="310" as="sourcePoint" />
            <mxPoint x="355" y="310" as="targetPoint" />
          </mxGeometry>
        </mxCell>
      </root>
    </mxGraphModel>
  </diagram>
</mxfile>
